<svg width="47" height="35" viewBox="0 0 47 35" fill="none" xmlns="http://www.w3.org/2000/svg">
<rect width="47.0093" height="35" fill="#64AA54"/>
<path fill-rule="evenodd" clip-rule="evenodd" d="M15.2977 2.91669H31.7137C37.7642 2.91669 41.1332 5.51252 41.1332 9.96044V25.025C41.1332 29.5459 37.7642 32.0834 31.7137 32.0834H15.2977C9.34316 32.0834 5.87622 29.5459 5.87622 25.025V9.96044C5.87622 5.51252 9.34316 2.91669 15.2977 2.91669ZM15.8265 9.71252V9.69794H21.6812C22.5254 9.69794 23.2109 10.2084 23.2109 10.834C23.2109 11.4771 22.5254 11.9875 21.6812 11.9875H15.8265C14.9823 11.9875 14.2987 11.4771 14.2987 10.85C14.2987 10.2229 14.9823 9.71252 15.8265 9.71252ZM15.8265 18.5792H31.1829C32.0252 18.5792 32.7107 18.0688 32.7107 17.4417C32.7107 16.8146 32.0252 16.3027 31.1829 16.3027H15.8265C14.9823 16.3027 14.2987 16.8146 14.2987 17.4417C14.2987 18.0688 14.9823 18.5792 15.8265 18.5792ZM15.8265 25.2438H31.1829C31.9644 25.1854 32.554 24.6881 32.554 24.1063C32.554 23.5084 31.9644 23.0125 31.1829 22.9542H15.8265C15.2389 22.9104 14.6709 23.1146 14.3575 23.4938C14.0441 23.8584 14.0441 24.3396 14.3575 24.7188C14.6709 25.0834 15.2389 25.3021 15.8265 25.2438Z" fill="white"/>
</svg>
